PathFileType	4	(X/Y/Z)	c:/Users/goper/Files/vsCode/490R/osim_files/A06/A06_SSWS_06.trc
DataRate	CameraRate	NumFrames	NumMarkers	Units                	OrigDataRate	OrigDataStartFrame	OrigNumFrames
120.00	120.00	6	36	mm	120.0	1043	1390
                Frame#	Time	LPSIS			LASIS			LTH1			LTH2			LTH3			LTH4			LLFE			LMFE			LSH1			LSH2			LSH3			LSH4			LLMAL			LMMAL			LCAL			LMTP5			LTOE			LMTP1			RPSIS			RASIS			RTH1			RTH2			RTH3			RTH4			RLFE			RMFE			RSH1			RSH2			RSH3			RSH4			RLMAL			RMMAL			RCAL			RMTP1			RTOE			RMTP5		
		X1	Y1	Z1	X2	Y2	Z2	X3	Y3	Z3	X4	Y4	Z4	X5	Y5	Z5	X6	Y6	Z6	X7	Y7	Z7	X8	Y8	Z8	X9	Y9	Z9	X10	Y10	Z10	X11	Y11	Z11	X12	Y12	Z12	X13	Y13	Z13	X14	Y14	Z14	X15	Y15	Z15	X16	Y16	Z16	X17	Y17	Z17	X18	Y18	Z18	X19	Y19	Z19	X20	Y20	Z20	X21	Y21	Z21	X22	Y22	Z22	X23	Y23	Z23	X24	Y24	Z24	X25	Y25	Z25	X26	Y26	Z26	X27	Y27	Z27	X28	Y28	Z28	X29	Y29	Z29	X30	Y30	Z30	X31	Y31	Z31	X32	Y32	Z32	X33	Y33	Z33	X34	Y34	Z34	X35	Y35	Z35	X36	Y36	Z36

1043	8.68333	-2758.33936	992.58557	250.79192	-2944.21069	939.03528	332.25964	-2970.52222	584.31757	364.32587	-2994.44800	549.14124	358.41962	-3029.79028	610.90778	359.34396	-3042.87793	571.08319	352.23917	-3049.20630	496.38904	340.82993	-3053.97705	494.64157	233.61992	-3018.89331	391.48773	354.05600	-3033.98706	350.39279	355.92117	-3076.15356	410.62573	349.16623	-3086.32446	370.72864	354.15607	-3113.51392	105.80200	311.10449	-3133.92065	128.19772	230.60492	-3058.49365	77.00623	254.77527	-3237.37573	88.10086	333.98776	-3270.64771	127.14474	284.09525	-3254.04395	113.16592	245.37511	-2769.32104	1006.96655	119.23692	-2947.56396	959.16321	74.27364	-2774.14526	597.53632	38.25714	-2771.88867	555.62726	35.98539	-2837.62573	587.40765	46.43424	-2823.94043	545.38715	43.15999	-2772.12524	439.34970	65.15073	-2771.60840	442.65317	154.49936	-2718.50903	291.31482	81.42020	-2710.37207	244.68889	84.49348	-2778.77026	276.94540	93.86803	-2761.81250	231.37422	91.67976	-2675.83179	106.68792	80.42130	-2685.72900	110.98507	162.35799	-2614.46460	89.58675	126.39850	-2815.73438	56.30458	160.80867	-2832.61328	65.16930	121.72066	-2806.90210	53.48665	71.80376
1044	8.69167	-2767.26929	991.26337	251.75967	-2954.42773	937.37500	332.19650	-2980.11743	582.00055	365.17639	-2999.35864	546.53259	357.33777	-3036.93433	607.66479	358.68497	-3050.31738	567.63971	353.11261	-3056.42554	494.00989	339.79996	-3061.46924	492.01764	232.92395	-3032.20850	388.98083	353.46072	-3048.39502	348.39774	355.49854	-3087.47168	410.51166	348.46698	-3099.46509	370.65152	353.71814	-3138.93237	107.08006	311.79294	-3160.41724	130.90903	232.75426	-3085.47241	78.68632	256.60437	-3263.67139	95.70820	334.66779	-3296.62085	135.94562	285.60336	-3280.72070	121.28526	245.11317	-2775.95093	1006.46692	120.13308	-2956.43872	958.00500	74.24015	-2780.85352	597.34589	38.66653	-2778.41187	555.59088	36.39375	-2842.26538	585.58130	47.22202	-2829.93237	544.50623	43.48228	-2776.90552	439.19073	65.45715	-2777.53931	442.67068	154.82283	-2721.77979	291.74933	81.76887	-2712.48779	245.39958	84.76595	-2781.72803	276.80869	94.03439	-2764.14795	231.44780	91.91488	-2676.21655	107.17442	80.65323	-2685.84766	111.50875	162.58827	-2614.47217	90.36843	126.77817	-2816.10620	56.45578	160.60794	-2832.98682	65.36153	121.40479	-2807.06030	53.45849	71.82174
1045	8.70000	-2777.94702	989.24207	253.43613	-2965.65820	936.11469	331.84360	-2987.67261	578.69464	364.81369	-3010.22876	541.82397	357.22113	-3045.34033	603.94690	358.51898	-3058.08301	563.57056	352.98926	-3065.30933	491.21820	339.75345	-3068.54614	489.36047	232.08105	-3043.50903	386.08459	352.94550	-3062.23145	346.64905	355.22641	-3098.97778	409.96674	348.30002	-3112.84570	370.46393	353.60687	-3163.70532	108.99516	312.70303	-3183.98438	133.05597	233.62064	-3111.20312	76.06373	256.72125	-3288.91235	103.53211	335.58493	-3318.53857	143.82439	287.39316	-3303.65308	128.50526	246.88213	-2784.94141	1005.31647	121.44911	-2965.04565	956.66882	74.05610	-2787.71973	597.07666	39.11042	-2784.38306	555.40356	36.69185	-2849.62427	585.31396	46.65235	-2836.14697	543.73114	43.77710	-2781.84644	438.96915	65.84769	-2782.77100	442.44995	155.17662	-2724.75220	292.22565	82.04993	-2714.89478	246.01396	85.09480	-2784.70215	276.56808	94.30617	-2766.52734	231.44511	92.11087	-2676.58008	107.70966	80.90954	-2686.51392	111.70923	163.05652	-2615.29224	90.89999	127.35052	-2816.06445	55.93085	160.72873	-2833.10938	64.75971	121.69726	-2807.25757	53.45365	71.86443
1046	8.70833	-2787.13916	987.65393	254.59355	-2976.44214	933.66577	332.04169	-2996.67773	574.48932	364.17050	-3018.30542	538.61597	356.68134	-3052.84717	600.89294	357.71252	-3065.82861	560.72021	352.05319	-3073.62329	488.31262	339.19821	-3075.48755	486.65704	231.23244	-3054.23804	383.68875	351.31018	-3076.82275	344.73666	355.52930	-3109.83008	410.28003	349.07700	-3125.44653	370.44049	353.33328	-3187.42896	111.14967	313.65540	-3205.54688	135.07933	233.93843	-3136.59961	75.77517	262.26953	-3311.94922	110.83096	336.12357	-3339.98584	152.00491	287.71649	-3325.68384	135.77995	247.35635	-2793.96167	1004.04230	122.85868	-2974.00610	955.89154	73.99229	-2794.75928	596.82336	39.51534	-2790.98022	554.95514	37.26461	-2855.59009	583.45428	47.60401	-2843.05566	543.06085	44.44811	-2786.87988	438.75314	66.20538	-2787.03711	441.86041	155.51570	-2727.99341	292.71799	82.41409	-2717.41064	246.67308	85.36914	-2787.60156	276.35019	94.50300	-2768.87549	231.38205	92.33196	-2677.03320	108.31516	81.20863	-2687.17212	112.01028	163.39658	-2615.95557	91.42474	127.92462	-2816.37793	55.73541	160.82994	-2833.57300	64.91627	121.40015	-2807.44312	53.46260	71.93839
1047	8.71667	-2797.15088	985.77161	256.13239	-2987.03931	931.81305	331.65543	-3004.22339	572.47028	363.83548	-3026.25122	535.71918	355.79489	-3062.12231	597.72125	357.55573	-3074.60791	557.24951	351.96158	-3082.38403	485.58282	338.80234	-3082.69263	483.98923	230.46515	-3066.11621	381.44183	351.32071	-3088.55688	343.58694	355.06921	-3120.18848	409.62393	348.60428	-3137.36328	370.37762	351.82895	-3208.46118	112.97056	314.10983	-3225.81445	137.33214	234.53391	-3158.86548	73.58857	258.78442	-3332.79956	117.22001	336.53870	-3359.31787	159.04353	287.86276	-3345.51270	142.23598	247.57149	-2803.09399	1002.76495	124.30322	-2982.93970	954.96661	73.72667	-2802.09814	596.52460	39.83196	-2797.74976	554.70197	37.61571	-2862.58691	582.44525	47.74686	-2849.54150	542.04553	44.62148	-2792.06909	438.55817	66.40710	-2792.51270	441.62012	155.78763	-2731.39648	293.21365	82.70470	-2720.15088	247.37347	85.68810	-2790.79297	276.16400	94.71078	-2771.45410	231.46297	92.53973	-2677.55029	108.93124	81.47332	-2687.87183	112.43679	163.73820	-2616.51025	92.30610	128.32419	-2816.66504	55.55853	160.84117	-2833.34277	64.41166	121.97432	-2807.65454	53.45303	71.95670
1048	8.72500	-2807.21802	983.85156	257.61816	-2998.38110	929.89191	331.40549	-3013.60156	570.12170	363.14896	-3035.63232	533.28522	355.17709	-3071.69922	595.33832	357.00558	-3084.04956	554.85138	351.29120	-3091.88110	483.41211	338.51849	-3090.90894	481.58859	229.93661	-3077.49121	379.66321	353.69794	-3100.97998	342.23077	355.17001	-3131.61914	408.69748	348.62576	-3149.20557	370.09174	351.68192	-3226.96533	113.95213	314.26001	-3243.51562	138.77922	234.72185	-3180.83472	78.58205	257.30984	-3352.28467	121.80225	336.88782	-3376.52490	164.29555	287.95016	-3363.03394	147.12662	247.66515	-2815.11230	1000.67767	126.16623	-2991.90234	954.08051	73.46093	-2809.61157	596.12451	40.01432	-2804.58643	554.41443	37.81123	-2869.67188	581.26959	47.76461	-2855.77173	540.93909	44.46499	-2797.48511	438.35428	66.60858	-2797.98486	441.34256	155.97800	-2734.79883	293.84174	82.87851	-2723.03638	248.14381	85.82964	-2793.95483	276.01001	94.87033	-2774.00854	231.52692	92.66100	-2678.04028	109.52363	81.67164	-2688.41724	112.87511	163.93944	-2616.54102	93.26116	128.51144	-2816.87549	55.36521	160.85135	-2833.97656	64.45908	121.57881	-2807.83374	53.47127	71.97491
